<svg xmlns="http://www.w3.org/2000/svg" xmlns:xlink="http://www.w3.org/1999/xlink" width="500" zoomAndPan="magnify" viewBox="0 0 375 374.999991" height="500" preserveAspectRatio="xMidYMid meet" version="1.0"><defs><g/><clipPath id="9171232a61"><path d="M 11 193 L 46 193 L 46 227 L 11 227 Z M 11 193 " clip-rule="nonzero"/></clipPath><clipPath id="19ac141e2a"><path d="M 22.386719 193.585938 L 45.308594 205.269531 L 33.625 228.191406 L 10.703125 216.507812 Z M 22.386719 193.585938 " clip-rule="nonzero"/></clipPath><clipPath id="e144292d7c"><path d="M 22.386719 193.585938 L 45.246094 205.238281 L 34.207031 226.902344 L 11.34375 215.25 Z M 22.386719 193.585938 " clip-rule="nonzero"/></clipPath><clipPath id="630d83bcde"><path d="M 16.878906 174.542969 L 146.023438 174.542969 L 146.023438 226.847656 L 16.878906 226.847656 Z M 16.878906 174.542969 " clip-rule="nonzero"/></clipPath><clipPath id="ac88d18b51"><path d="M 21.332031 180 L 150.476562 180 L 150.476562 232.242188 L 21.332031 232.242188 Z M 21.332031 180 " clip-rule="nonzero"/></clipPath></defs><rect x="-37.5" width="450" fill="#ffffff" y="-37.499999" height="449.999989" fill-opacity="1"/><rect x="-37.5" width="450" fill="#ffffff" y="-37.499999" height="449.999989" fill-opacity="1"/><rect x="-37.5" width="450" fill="#ffffff" y="-37.499999" height="449.999989" fill-opacity="1"/><g fill="#000000" fill-opacity="1"><g transform="translate(156.738777, 208.798723)"><g><path d="M 5.390625 -19.765625 C 5.390625 -20.347656 5.253906 -20.890625 4.984375 -21.390625 L 22.484375 -21.390625 C 23.941406 -21.359375 25.078125 -21.164062 25.890625 -20.8125 C 26.703125 -20.476562 27.207031 -19.472656 27.40625 -17.796875 L 26.3125 -12.734375 C 26.019531 -11.796875 25.640625 -11.117188 25.171875 -10.703125 C 25.617188 -10.253906 25.707031 -9.59375 25.4375 -8.71875 L 24.375 -3.5 C 23.769531 -1.875 22.421875 -0.929688 20.328125 -0.671875 L 0.78125 -0.671875 C 1.1875 -1.066406 1.476562 -1.617188 1.65625 -2.328125 Z M 14.015625 -19 L 13.578125 -18.953125 L 12.171875 -12.328125 L 15.65625 -12.359375 C 17.101562 -12.691406 17.976562 -13.453125 18.28125 -14.640625 L 18.75 -16.78125 L 18.84375 -17.453125 C 18.84375 -17.617188 18.796875 -17.828125 18.703125 -18.078125 L 18.3125 -18.5625 C 17.769531 -18.820312 17.0625 -18.953125 16.1875 -18.953125 L 15.8125 -19 Z M 11.546875 -9.40625 L 10.21875 -3.09375 L 14.0625 -3.09375 L 14.53125 -3.140625 C 14.632812 -3.171875 14.734375 -3.191406 14.828125 -3.203125 C 14.929688 -3.222656 15.023438 -3.25 15.109375 -3.28125 C 15.578125 -3.425781 15.921875 -3.9375 16.140625 -4.8125 L 16.859375 -8.234375 C 16.765625 -8.585938 16.65625 -8.832031 16.53125 -8.96875 C 16.300781 -9.164062 16.015625 -9.3125 15.671875 -9.40625 Z M 11.546875 -9.40625 "/></g></g></g><g fill="#000000" fill-opacity="1"><g transform="translate(180.83034, 208.798723)"><g><path d="M 3.96875 -14.96875 L 4.328125 -16.71875 L 16.09375 -16.71875 L 18.328125 -16.4375 C 19.742188 -16.269531 20.390625 -15.070312 20.265625 -12.84375 L 18.28125 -3.453125 L 18.234375 -2.875 C 18.097656 -2.28125 18.097656 -1.632812 18.234375 -0.9375 L 18.171875 -0.671875 L 11.984375 -0.671875 L 12.03125 -2.03125 L 11.984375 -2.21875 C 11.867188 -1.78125 11.554688 -1.351562 11.046875 -0.9375 L 10.4375 -0.671875 L 3.453125 -0.671875 L 2.609375 -1.125 C 2.097656 -2.675781 2.039062 -4.332031 2.4375 -6.09375 C 2.757812 -8.070312 3.347656 -9.40625 4.203125 -10.09375 C 5.085938 -10.789062 6.582031 -11.222656 8.6875 -11.390625 L 13.078125 -11.390625 C 13.898438 -11.546875 14.359375 -11.921875 14.453125 -12.515625 C 14.640625 -13.117188 14.429688 -13.484375 13.828125 -13.609375 L 5.046875 -13.609375 L 3.546875 -12.890625 Z M 11.765625 -8.59375 L 9.921875 -8.59375 C 9.347656 -8.5625 9.015625 -8.101562 8.921875 -7.21875 L 8.421875 -4.8125 L 8.46875 -4.15625 C 9.519531 -3.488281 10.785156 -3.632812 12.265625 -4.59375 C 12.304688 -4.675781 12.359375 -4.84375 12.421875 -5.09375 L 12.5625 -5.8125 L 13.125 -8.5 C 12.9375 -8.625 12.484375 -8.65625 11.765625 -8.59375 Z M 11.765625 -8.59375 "/></g></g></g><g fill="#000000" fill-opacity="1"><g transform="translate(199.619453, 208.798723)"><g><path d="M 4.765625 -20.109375 L 4.8125 -20.40625 L 11.1875 -20.40625 L 10.046875 -15.265625 C 10.335938 -16.078125 10.847656 -16.609375 11.578125 -16.859375 L 17.25 -16.8125 C 17.644531 -16.8125 18.019531 -16.75 18.375 -16.625 C 18.59375 -16.5625 18.835938 -16.4375 19.109375 -16.25 L 19.328125 -16.140625 C 19.628906 -15.679688 19.8125 -15.035156 19.875 -14.203125 L 19.78125 -13.21875 L 19.734375 -12.5625 L 17.703125 -3.0625 L 17.515625 -2.609375 C 17.253906 -2.128906 16.847656 -1.632812 16.296875 -1.125 C 15.847656 -0.851562 15.460938 -0.703125 15.140625 -0.671875 L 0.8125 -0.671875 L 1.75 -3.0625 L 4.953125 -18.171875 Z M 13.6875 -13.515625 L 10.53125 -13.515625 C 10.332031 -13.335938 10.113281 -13.082031 9.875 -12.75 L 8.15625 -4.546875 L 8.296875 -4.0625 C 8.710938 -3.78125 9.128906 -3.613281 9.546875 -3.5625 C 9.972656 -3.519531 10.367188 -3.535156 10.734375 -3.609375 C 11.097656 -3.691406 11.410156 -3.820312 11.671875 -4 C 11.941406 -4.1875 12.125 -4.382812 12.21875 -4.59375 L 13.921875 -12.65625 C 13.921875 -13.03125 13.84375 -13.316406 13.6875 -13.515625 Z M 13.6875 -13.515625 "/></g></g></g><g fill="#000000" fill-opacity="1"><g transform="translate(217.601672, 208.798723)"><g><path d="M 4.6875 -14.78125 C 4.769531 -15.40625 4.632812 -16.003906 4.28125 -16.578125 L 10.859375 -16.578125 L 8.296875 -4.71875 C 8.296875 -4.34375 8.425781 -4.046875 8.6875 -3.828125 L 11.53125 -3.828125 L 12.171875 -4.25 C 12.234375 -4.476562 12.304688 -4.710938 12.390625 -4.953125 C 12.472656 -5.203125 12.546875 -5.457031 12.609375 -5.71875 L 14.921875 -16.625 L 21.71875 -16.578125 C 21.5 -16.222656 21.304688 -15.859375 21.140625 -15.484375 C 20.984375 -15.109375 20.832031 -14.71875 20.6875 -14.3125 L 20.453125 -13.609375 L 16.90625 3.203125 C 16.425781 5.472656 15.234375 6.910156 13.328125 7.515625 L 0.625 7.515625 L 1.078125 2.796875 L 1.171875 2.390625 L 2.3125 3.15625 C 2.96875 3.3125 3.878906 3.359375 5.046875 3.296875 L 10 3.296875 C 10.601562 3.234375 10.9375 2.921875 11 2.359375 L 11.890625 -1.5625 C 11.835938 -1.09375 11.460938 -0.84375 10.765625 -0.8125 L 3.78125 -0.765625 L 3.546875 -0.859375 C 3.046875 -1.097656 2.675781 -1.441406 2.4375 -1.890625 C 2.351562 -2.203125 2.3125 -2.65625 2.3125 -3.25 L 2.3125 -3.828125 Z M 4.6875 -14.78125 "/></g></g></g><g fill="#000000" fill-opacity="1"><g transform="translate(236.828814, 208.798723)"><g><path d="M 4.375 -14.828125 C 4.882812 -15.671875 5.785156 -16.378906 7.078125 -16.953125 L 18.609375 -16.953125 L 19.28125 -16.859375 C 20.6875 -15.691406 20.976562 -13.914062 20.15625 -11.53125 L 14.3125 -11.53125 C 14.71875 -12.40625 14.632812 -13.15625 14.0625 -13.78125 L 11.1875 -13.78125 C 10.96875 -13.664062 10.765625 -13.488281 10.578125 -13.25 L 10.359375 -12.703125 L 9.921875 -10.765625 L 10.09375 -10.390625 C 10.476562 -10.285156 11.132812 -10.21875 12.0625 -10.1875 C 13 -10.15625 14.1875 -10.15625 15.625 -10.1875 C 18.394531 -10.21875 19.628906 -9.375 19.328125 -7.65625 L 18.796875 -5.140625 L 18.46875 -3.921875 L 18.234375 -3.390625 L 17.75 -2.359375 C 17.59375 -2.140625 17.410156 -1.929688 17.203125 -1.734375 C 17.003906 -1.546875 16.78125 -1.359375 16.53125 -1.171875 L 15.5 -0.8125 L 2.125 -0.8125 L 2.703125 -5.8125 C 3.066406 -5.59375 3.425781 -5.320312 3.78125 -5 L 12.421875 -5.046875 C 13.085938 -5.203125 13.46875 -5.550781 13.5625 -6.09375 C 13.738281 -6.65625 13.53125 -6.953125 12.9375 -6.984375 L 4.90625 -6.9375 L 4.0625 -7.171875 L 3.640625 -7.265625 C 3.578125 -7.328125 3.488281 -7.40625 3.375 -7.5 C 3.257812 -7.601562 3.125 -7.789062 2.96875 -8.0625 Z M 4.375 -14.828125 "/></g></g></g><g fill="#000000" fill-opacity="1"><g transform="translate(255.80236, 208.798723)"><g><path d="M 5.140625 -18.609375 L 4.953125 -19.96875 L 11.1875 -19.96875 L 10.1875 -15.140625 C 10.664062 -16.222656 11.265625 -16.78125 11.984375 -16.8125 L 16.4375 -16.859375 L 17.4375 -16.765625 L 17.984375 -16.578125 L 18.125 -16.484375 C 19.351562 -15.160156 19.632812 -13.238281 18.96875 -10.71875 L 17.03125 -1.65625 L 17.5625 -0.71875 L 10.4375 -0.71875 C 10.6875 -1.175781 10.898438 -1.617188 11.078125 -2.046875 C 11.253906 -2.484375 11.40625 -2.882812 11.53125 -3.25 L 13.515625 -12.75 L 13.609375 -13.21875 C 12.554688 -13.90625 11.28125 -13.84375 9.78125 -13.03125 L 9.453125 -11.765625 L 7.421875 -2.125 L 7.46875 -1.5625 L 7.65625 -0.71875 L 0.765625 -0.71875 C 0.972656 -0.957031 1.148438 -1.226562 1.296875 -1.53125 C 1.441406 -1.832031 1.578125 -2.160156 1.703125 -2.515625 Z M 5.140625 -18.609375 "/></g></g></g><g fill="#000000" fill-opacity="1"><g transform="translate(273.78458, 208.798723)"><g><path d="M 3.96875 -14.96875 L 4.328125 -16.71875 L 16.09375 -16.71875 L 18.328125 -16.4375 C 19.742188 -16.269531 20.390625 -15.070312 20.265625 -12.84375 L 18.28125 -3.453125 L 18.234375 -2.875 C 18.097656 -2.28125 18.097656 -1.632812 18.234375 -0.9375 L 18.171875 -0.671875 L 11.984375 -0.671875 L 12.03125 -2.03125 L 11.984375 -2.21875 C 11.867188 -1.78125 11.554688 -1.351562 11.046875 -0.9375 L 10.4375 -0.671875 L 3.453125 -0.671875 L 2.609375 -1.125 C 2.097656 -2.675781 2.039062 -4.332031 2.4375 -6.09375 C 2.757812 -8.070312 3.347656 -9.40625 4.203125 -10.09375 C 5.085938 -10.789062 6.582031 -11.222656 8.6875 -11.390625 L 13.078125 -11.390625 C 13.898438 -11.546875 14.359375 -11.921875 14.453125 -12.515625 C 14.640625 -13.117188 14.429688 -13.484375 13.828125 -13.609375 L 5.046875 -13.609375 L 3.546875 -12.890625 Z M 11.765625 -8.59375 L 9.921875 -8.59375 C 9.347656 -8.5625 9.015625 -8.101562 8.921875 -7.21875 L 8.421875 -4.8125 L 8.46875 -4.15625 C 9.519531 -3.488281 10.785156 -3.632812 12.265625 -4.59375 C 12.304688 -4.675781 12.359375 -4.84375 12.421875 -5.09375 L 12.5625 -5.8125 L 13.125 -8.5 C 12.9375 -8.625 12.484375 -8.65625 11.765625 -8.59375 Z M 11.765625 -8.59375 "/></g></g></g><g fill="#000000" fill-opacity="1"><g transform="translate(292.573693, 208.798723)"><g><path d="M 4.765625 -15.5 L 4.546875 -16.859375 L 10.859375 -16.859375 L 10.484375 -15.140625 C 10.953125 -16.222656 11.929688 -16.78125 13.421875 -16.8125 L 16.25 -16.8125 C 17.789062 -16.59375 18.351562 -15.238281 17.9375 -12.75 L 13.78125 -12.75 L 13.828125 -13.21875 C 12.828125 -13.90625 11.566406 -13.84375 10.046875 -13.03125 L 9.734375 -11.765625 L 7.703125 -2.125 L 7.703125 -1.5625 L 7.9375 -0.71875 L 0.984375 -0.71875 C 1.398438 -1.113281 1.734375 -1.710938 1.984375 -2.515625 Z M 4.765625 -15.5 "/></g></g></g><g fill="#000000" fill-opacity="1"><g transform="translate(308.665473, 208.798723)"><g><path d="M 5.484375 -20.015625 L 5.1875 -20.3125 L 11.890625 -20.3125 L 10.09375 -11.765625 L 10.140625 -11.578125 C 12.753906 -13.953125 14.160156 -15.585938 14.359375 -16.484375 L 21.171875 -16.484375 C 20.816406 -16.222656 20.492188 -15.976562 20.203125 -15.75 C 19.921875 -15.519531 19.6875 -15.273438 19.5 -15.015625 L 14.828125 -9.734375 L 17.65625 -2.265625 L 17.890625 -1.890625 L 18.703125 -0.71875 L 11.8125 -0.71875 C 11.957031 -1.175781 11.96875 -1.566406 11.84375 -1.890625 L 9.40625 -8.546875 L 8.34375 -3.546875 L 8.25 -2.75 L 8.203125 -1.21875 L 8.25 -0.71875 L 1.359375 -0.71875 L 2.125 -2.5625 L 2.3125 -2.96875 L 5.53125 -18.125 L 5.625 -19.546875 Z M 5.484375 -20.015625 "/></g></g></g><g fill="#000000" fill-opacity="1"><g transform="translate(142.69174, 225.400564)"><g><path d="M 3.8125 -3.5 C 3.8125 -3 3.640625 -2.613281 3.296875 -2.34375 C 2.953125 -2.070312 2.460938 -1.9375 1.828125 -1.9375 L 1.25 -1.9375 L 1.25 0 L 0.671875 0 L 0.671875 -4.9375 L 1.953125 -4.9375 C 3.191406 -4.9375 3.8125 -4.457031 3.8125 -3.5 Z M 1.25 -2.4375 L 1.765625 -2.4375 C 2.273438 -2.4375 2.644531 -2.519531 2.875 -2.6875 C 3.101562 -2.851562 3.21875 -3.113281 3.21875 -3.46875 C 3.21875 -3.800781 3.109375 -4.046875 2.890625 -4.203125 C 2.679688 -4.359375 2.347656 -4.4375 1.890625 -4.4375 L 1.25 -4.4375 Z M 1.25 -2.4375 "/></g></g></g><g fill="#000000" fill-opacity="1"><g transform="translate(150.956125, 225.400564)"><g><path d="M 1.25 -2.0625 L 1.25 0 L 0.671875 0 L 0.671875 -4.9375 L 2.03125 -4.9375 C 2.632812 -4.9375 3.082031 -4.820312 3.375 -4.59375 C 3.664062 -4.363281 3.8125 -4.015625 3.8125 -3.546875 C 3.8125 -2.890625 3.476562 -2.445312 2.8125 -2.21875 L 4.15625 0 L 3.484375 0 L 2.28125 -2.0625 Z M 1.25 -2.546875 L 2.046875 -2.546875 C 2.453125 -2.546875 2.75 -2.625 2.9375 -2.78125 C 3.125 -2.945312 3.21875 -3.191406 3.21875 -3.515625 C 3.21875 -3.835938 3.117188 -4.070312 2.921875 -4.21875 C 2.734375 -4.363281 2.425781 -4.4375 2 -4.4375 L 1.25 -4.4375 Z M 1.25 -2.546875 "/></g></g></g><g fill="#000000" fill-opacity="1"><g transform="translate(159.332035, 225.400564)"><g><path d="M 3.4375 0 L 0.671875 0 L 0.671875 -4.9375 L 3.4375 -4.9375 L 3.4375 -4.4375 L 1.25 -4.4375 L 1.25 -2.84375 L 3.296875 -2.84375 L 3.296875 -2.328125 L 1.25 -2.328125 L 1.25 -0.515625 L 3.4375 -0.515625 Z M 3.4375 0 "/></g></g></g><g fill="#000000" fill-opacity="1"><g transform="translate(167.278743, 225.400564)"><g><path d="M 2.859375 0 L 1.1875 -4.375 L 1.15625 -4.375 C 1.1875 -4.03125 1.203125 -3.617188 1.203125 -3.140625 L 1.203125 0 L 0.671875 0 L 0.671875 -4.9375 L 1.546875 -4.9375 L 3.109375 -0.859375 L 3.140625 -0.859375 L 4.71875 -4.9375 L 5.578125 -4.9375 L 5.578125 0 L 5 0 L 5 -3.1875 C 5 -3.550781 5.015625 -3.945312 5.046875 -4.375 L 5.015625 -4.375 L 3.328125 0 Z M 2.859375 0 "/></g></g></g><g fill="#000000" fill-opacity="1"><g transform="translate(177.624926, 225.400564)"><g><path d="M 0.671875 0 L 0.671875 -4.9375 L 1.25 -4.9375 L 1.25 0 Z M 0.671875 0 "/></g></g></g><g fill="#000000" fill-opacity="1"><g transform="translate(183.652056, 225.400564)"><g><path d="M 4.40625 -4.9375 L 4.40625 -1.75 C 4.40625 -1.1875 4.234375 -0.742188 3.890625 -0.421875 C 3.554688 -0.0976562 3.09375 0.0625 2.5 0.0625 C 1.90625 0.0625 1.441406 -0.0976562 1.109375 -0.421875 C 0.785156 -0.742188 0.625 -1.1875 0.625 -1.75 L 0.625 -4.9375 L 1.203125 -4.9375 L 1.203125 -1.71875 C 1.203125 -1.300781 1.3125 -0.984375 1.53125 -0.765625 C 1.757812 -0.546875 2.09375 -0.4375 2.53125 -0.4375 C 2.945312 -0.4375 3.269531 -0.546875 3.5 -0.765625 C 3.726562 -0.992188 3.84375 -1.3125 3.84375 -1.71875 L 3.84375 -4.9375 Z M 4.40625 -4.9375 "/></g></g></g><g fill="#000000" fill-opacity="1"><g transform="translate(192.788365, 225.400564)"><g><path d="M 2.859375 0 L 1.1875 -4.375 L 1.15625 -4.375 C 1.1875 -4.03125 1.203125 -3.617188 1.203125 -3.140625 L 1.203125 0 L 0.671875 0 L 0.671875 -4.9375 L 1.546875 -4.9375 L 3.109375 -0.859375 L 3.140625 -0.859375 L 4.71875 -4.9375 L 5.578125 -4.9375 L 5.578125 0 L 5 0 L 5 -3.1875 C 5 -3.550781 5.015625 -3.945312 5.046875 -4.375 L 5.015625 -4.375 L 3.328125 0 Z M 2.859375 0 "/></g></g></g><g fill="#000000" fill-opacity="1"><g transform="translate(203.13455, 225.400564)"><g/></g></g><g fill="#000000" fill-opacity="1"><g transform="translate(209.029878, 225.400564)"><g><path d="M 2.796875 -4.5 C 2.253906 -4.5 1.820312 -4.316406 1.5 -3.953125 C 1.1875 -3.585938 1.03125 -3.09375 1.03125 -2.46875 C 1.03125 -1.820312 1.179688 -1.320312 1.484375 -0.96875 C 1.796875 -0.613281 2.226562 -0.4375 2.78125 -0.4375 C 3.132812 -0.4375 3.53125 -0.5 3.96875 -0.625 L 3.96875 -0.125 C 3.625 0 3.203125 0.0625 2.703125 0.0625 C 1.972656 0.0625 1.410156 -0.15625 1.015625 -0.59375 C 0.617188 -1.03125 0.421875 -1.660156 0.421875 -2.484375 C 0.421875 -2.984375 0.515625 -3.425781 0.703125 -3.8125 C 0.898438 -4.195312 1.175781 -4.492188 1.53125 -4.703125 C 1.894531 -4.910156 2.316406 -5.015625 2.796875 -5.015625 C 3.316406 -5.015625 3.769531 -4.921875 4.15625 -4.734375 L 3.921875 -4.234375 C 3.546875 -4.410156 3.171875 -4.5 2.796875 -4.5 Z M 2.796875 -4.5 "/></g></g></g><g fill="#000000" fill-opacity="1"><g transform="translate(217.493659, 225.400564)"><g><path d="M 0.671875 0 L 0.671875 -4.9375 L 1.25 -4.9375 L 1.25 -0.515625 L 3.4375 -0.515625 L 3.4375 0 Z M 0.671875 0 "/></g></g></g><g fill="#000000" fill-opacity="1"><g transform="translate(225.183524, 225.400564)"><g><path d="M 4.96875 -2.484375 C 4.96875 -1.691406 4.765625 -1.066406 4.359375 -0.609375 C 3.960938 -0.160156 3.410156 0.0625 2.703125 0.0625 C 1.972656 0.0625 1.410156 -0.15625 1.015625 -0.59375 C 0.617188 -1.039062 0.421875 -1.671875 0.421875 -2.484375 C 0.421875 -3.285156 0.617188 -3.90625 1.015625 -4.34375 C 1.410156 -4.789062 1.972656 -5.015625 2.703125 -5.015625 C 3.410156 -5.015625 3.960938 -4.789062 4.359375 -4.34375 C 4.765625 -3.894531 4.96875 -3.273438 4.96875 -2.484375 Z M 1.03125 -2.484375 C 1.03125 -1.804688 1.171875 -1.296875 1.453125 -0.953125 C 1.742188 -0.609375 2.160156 -0.4375 2.703125 -0.4375 C 3.242188 -0.4375 3.65625 -0.609375 3.9375 -0.953125 C 4.21875 -1.296875 4.359375 -1.804688 4.359375 -2.484375 C 4.359375 -3.140625 4.21875 -3.640625 3.9375 -3.984375 C 3.664062 -4.328125 3.253906 -4.5 2.703125 -4.5 C 2.160156 -4.5 1.742188 -4.328125 1.453125 -3.984375 C 1.171875 -3.640625 1.03125 -3.140625 1.03125 -2.484375 Z M 1.03125 -2.484375 "/></g></g></g><g fill="#000000" fill-opacity="1"><g transform="translate(234.671305, 225.400564)"><g><path d="M 2.203125 0 L 1.625 0 L 1.625 -4.4375 L 0.0625 -4.4375 L 0.0625 -4.9375 L 3.765625 -4.9375 L 3.765625 -4.4375 L 2.203125 -4.4375 Z M 2.203125 0 "/></g></g></g><g fill="#000000" fill-opacity="1"><g transform="translate(242.597738, 225.400564)"><g><path d="M 4.4375 0 L 3.859375 0 L 3.859375 -2.328125 L 1.25 -2.328125 L 1.25 0 L 0.671875 0 L 0.671875 -4.9375 L 1.25 -4.9375 L 1.25 -2.84375 L 3.859375 -2.84375 L 3.859375 -4.9375 L 4.4375 -4.9375 Z M 4.4375 0 "/></g></g></g><g fill="#000000" fill-opacity="1"><g transform="translate(251.801638, 225.400564)"><g><path d="M 0.671875 0 L 0.671875 -4.9375 L 1.25 -4.9375 L 1.25 0 Z M 0.671875 0 "/></g></g></g><g fill="#000000" fill-opacity="1"><g transform="translate(257.828769, 225.400564)"><g><path d="M 4.546875 0 L 3.890625 0 L 1.1875 -4.140625 L 1.15625 -4.140625 C 1.1875 -3.660156 1.203125 -3.21875 1.203125 -2.8125 L 1.203125 0 L 0.671875 0 L 0.671875 -4.9375 L 1.328125 -4.9375 L 4.015625 -0.8125 L 4.046875 -0.8125 C 4.046875 -0.875 4.035156 -1.066406 4.015625 -1.390625 C 4.003906 -1.722656 4 -1.960938 4 -2.109375 L 4 -4.9375 L 4.546875 -4.9375 Z M 4.546875 0 "/></g></g></g><g fill="#000000" fill-opacity="1"><g transform="translate(267.144193, 225.400564)"><g><path d="M 2.859375 -2.59375 L 4.53125 -2.59375 L 4.53125 -0.1875 C 4.269531 -0.101562 4.003906 -0.0390625 3.734375 0 C 3.460938 0.0390625 3.148438 0.0625 2.796875 0.0625 C 2.046875 0.0625 1.460938 -0.15625 1.046875 -0.59375 C 0.628906 -1.039062 0.421875 -1.664062 0.421875 -2.46875 C 0.421875 -2.976562 0.523438 -3.425781 0.734375 -3.8125 C 0.941406 -4.207031 1.238281 -4.503906 1.625 -4.703125 C 2.007812 -4.910156 2.460938 -5.015625 2.984375 -5.015625 C 3.515625 -5.015625 4.003906 -4.914062 4.453125 -4.71875 L 4.234375 -4.21875 C 3.785156 -4.40625 3.359375 -4.5 2.953125 -4.5 C 2.347656 -4.5 1.875 -4.316406 1.53125 -3.953125 C 1.195312 -3.597656 1.03125 -3.101562 1.03125 -2.46875 C 1.03125 -1.800781 1.191406 -1.296875 1.515625 -0.953125 C 1.835938 -0.609375 2.316406 -0.4375 2.953125 -0.4375 C 3.296875 -0.4375 3.628906 -0.472656 3.953125 -0.546875 L 3.953125 -2.078125 L 2.859375 -2.078125 Z M 2.859375 -2.59375 "/></g></g></g><g fill="#000000" fill-opacity="1"><g transform="translate(276.280502, 225.400564)"><g/></g></g><g fill="#000000" fill-opacity="1"><g transform="translate(282.175831, 225.400564)"><g><path d="M 4.96875 -2.484375 C 4.96875 -1.847656 4.835938 -1.316406 4.578125 -0.890625 C 4.328125 -0.472656 3.972656 -0.191406 3.515625 -0.046875 L 4.6875 1.171875 L 3.84375 1.171875 L 2.890625 0.0625 L 2.703125 0.0625 C 1.972656 0.0625 1.410156 -0.15625 1.015625 -0.59375 C 0.617188 -1.039062 0.421875 -1.671875 0.421875 -2.484375 C 0.421875 -3.285156 0.617188 -3.90625 1.015625 -4.34375 C 1.410156 -4.789062 1.972656 -5.015625 2.703125 -5.015625 C 3.410156 -5.015625 3.960938 -4.789062 4.359375 -4.34375 C 4.765625 -3.894531 4.96875 -3.273438 4.96875 -2.484375 Z M 1.03125 -2.484375 C 1.03125 -1.804688 1.171875 -1.296875 1.453125 -0.953125 C 1.742188 -0.609375 2.160156 -0.4375 2.703125 -0.4375 C 3.242188 -0.4375 3.65625 -0.609375 3.9375 -0.953125 C 4.21875 -1.296875 4.359375 -1.804688 4.359375 -2.484375 C 4.359375 -3.140625 4.21875 -3.640625 3.9375 -3.984375 C 3.664062 -4.328125 3.253906 -4.5 2.703125 -4.5 C 2.160156 -4.5 1.742188 -4.328125 1.453125 -3.984375 C 1.171875 -3.640625 1.03125 -3.140625 1.03125 -2.484375 Z M 1.03125 -2.484375 "/></g></g></g><g fill="#000000" fill-opacity="1"><g transform="translate(291.663603, 225.400564)"><g><path d="M 4.40625 -4.9375 L 4.40625 -1.75 C 4.40625 -1.1875 4.234375 -0.742188 3.890625 -0.421875 C 3.554688 -0.0976562 3.09375 0.0625 2.5 0.0625 C 1.90625 0.0625 1.441406 -0.0976562 1.109375 -0.421875 C 0.785156 -0.742188 0.625 -1.1875 0.625 -1.75 L 0.625 -4.9375 L 1.203125 -4.9375 L 1.203125 -1.71875 C 1.203125 -1.300781 1.3125 -0.984375 1.53125 -0.765625 C 1.757812 -0.546875 2.09375 -0.4375 2.53125 -0.4375 C 2.945312 -0.4375 3.269531 -0.546875 3.5 -0.765625 C 3.726562 -0.992188 3.84375 -1.3125 3.84375 -1.71875 L 3.84375 -4.9375 Z M 4.40625 -4.9375 "/></g></g></g><g fill="#000000" fill-opacity="1"><g transform="translate(300.799912, 225.400564)"><g><path d="M 3.78125 0 L 3.171875 -1.578125 L 1.1875 -1.578125 L 0.578125 0 L 0 0 L 1.953125 -4.96875 L 2.4375 -4.96875 L 4.375 0 Z M 2.984375 -2.09375 L 2.421875 -3.625 C 2.347656 -3.8125 2.269531 -4.046875 2.1875 -4.328125 C 2.132812 -4.117188 2.0625 -3.882812 1.96875 -3.625 L 1.390625 -2.09375 Z M 2.984375 -2.09375 "/></g></g></g><g fill="#000000" fill-opacity="1"><g transform="translate(309.27721, 225.400564)"><g><path d="M 0.671875 0 L 0.671875 -4.9375 L 1.25 -4.9375 L 1.25 -0.515625 L 3.4375 -0.515625 L 3.4375 0 Z M 0.671875 0 "/></g></g></g><g fill="#000000" fill-opacity="1"><g transform="translate(316.967076, 225.400564)"><g><path d="M 0.671875 0 L 0.671875 -4.9375 L 1.25 -4.9375 L 1.25 0 Z M 0.671875 0 "/></g></g></g><g fill="#000000" fill-opacity="1"><g transform="translate(322.994206, 225.400564)"><g><path d="M 2.203125 0 L 1.625 0 L 1.625 -4.4375 L 0.0625 -4.4375 L 0.0625 -4.9375 L 3.765625 -4.9375 L 3.765625 -4.4375 L 2.203125 -4.4375 Z M 2.203125 0 "/></g></g></g><g fill="#000000" fill-opacity="1"><g transform="translate(330.920639, 225.400564)"><g><path d="M 1.9375 -2.46875 L 3.25 -4.9375 L 3.875 -4.9375 L 2.234375 -1.921875 L 2.234375 0 L 1.640625 0 L 1.640625 -1.890625 L 0 -4.9375 L 0.625 -4.9375 Z M 1.9375 -2.46875 "/></g></g></g><g fill="#000000" fill-opacity="1"><g transform="translate(22.838283, 206.150168)"><g><path d="M 19.265625 -70.578125 C 19.265625 -72.671875 18.773438 -74.617188 17.796875 -76.421875 L 80.296875 -76.421875 C 85.515625 -76.316406 89.578125 -75.632812 92.484375 -74.375 C 95.398438 -73.164062 97.210938 -69.566406 97.921875 -63.578125 L 93.96875 -45.46875 C 92.925781 -42.113281 91.582031 -39.695312 89.9375 -38.21875 C 91.53125 -36.625 91.832031 -34.257812 90.84375 -31.125 L 87.046875 -12.515625 C 84.910156 -6.691406 80.109375 -3.316406 72.640625 -2.390625 L 2.796875 -2.390625 C 4.222656 -3.816406 5.269531 -5.789062 5.9375 -8.3125 Z M 50.078125 -67.859375 L 48.515625 -67.703125 L 43.484375 -44.0625 L 55.921875 -44.140625 C 61.078125 -45.347656 64.207031 -48.066406 65.3125 -52.296875 L 66.953125 -59.953125 L 67.28125 -62.34375 C 67.28125 -62.945312 67.117188 -63.6875 66.796875 -64.5625 L 65.390625 -66.296875 C 63.472656 -67.234375 60.945312 -67.703125 57.8125 -67.703125 L 56.5 -67.859375 Z M 41.265625 -33.609375 L 36.484375 -11.03125 L 50.234375 -11.03125 L 51.890625 -11.203125 C 52.273438 -11.304688 52.644531 -11.382812 53 -11.4375 C 53.351562 -11.5 53.671875 -11.582031 53.953125 -11.6875 C 55.648438 -12.238281 56.882812 -14.082031 57.65625 -17.21875 L 60.203125 -29.40625 C 59.867188 -30.664062 59.484375 -31.539062 59.046875 -32.03125 C 58.222656 -32.75 57.207031 -33.273438 56 -33.609375 Z M 41.265625 -33.609375 "/></g></g></g><g clip-path="url(#9171232a61)"><g clip-path="url(#19ac141e2a)"><g clip-path="url(#e144292d7c)"><path fill="#ffffff" d="M 22.386719 193.585938 L 45.308594 205.269531 L 34.3125 226.84375 L 11.390625 215.160156 Z M 22.386719 193.585938 " fill-opacity="1" fill-rule="nonzero"/></g></g></g><g clip-path="url(#630d83bcde)"><path fill="#ffffff" d="M 126.457031 226.84375 C 126.019531 226.757812 125.796875 226.414062 125.605469 226.070312 C 125.117188 225.195312 124.78125 224.25 124.421875 223.316406 C 123.769531 221.625 123.078125 219.949219 122.355469 218.261719 C 122.097656 218.910156 121.859375 219.539062 121.585938 220.15625 C 121.097656 221.265625 120.574219 222.363281 119.871094 223.367188 C 119.683594 223.640625 119.464844 223.867188 119.203125 224.070312 C 118.910156 224.296875 118.679688 224.25 118.558594 223.898438 C 118.410156 223.496094 118.277344 223.09375 118.164062 222.679688 C 117.792969 221.34375 117.511719 219.992188 117.3125 218.628906 C 117.28125 218.441406 117.253906 218.261719 117.210938 218.085938 C 116.945312 216.9375 116.878906 215.746094 116.5625 214.613281 C 116.191406 213.296875 115.910156 211.949219 115.367188 210.6875 C 115.121094 210.121094 114.761719 209.617188 114.210938 209.304688 C 114.125 209.253906 114.066406 209.210938 114.058594 209.367188 C 114.054688 209.476562 113.953125 209.496094 113.867188 209.53125 C 112.960938 209.898438 112.058594 210.277344 111.148438 210.644531 C 110.09375 211.066406 109.046875 211.511719 107.976562 211.890625 C 107.15625 212.179688 106.324219 212.429688 105.488281 212.65625 C 104.382812 212.960938 103.261719 213.167969 102.15625 213.433594 C 100.242188 213.898438 98.320312 214.285156 96.367188 214.558594 C 95.785156 214.636719 95.183594 214.601562 94.59375 214.644531 C 93.984375 214.6875 93.382812 214.75 92.773438 214.808594 C 91.832031 214.902344 90.898438 214.988281 89.953125 215.015625 C 88.1875 215.066406 86.421875 214.878906 84.664062 214.828125 C 84.25 214.816406 83.832031 214.78125 83.425781 214.742188 C 82.921875 214.699219 82.5 214.878906 82.066406 215.074219 C 81.449219 215.351562 81.011719 215.855469 80.496094 216.257812 C 79.378906 217.144531 78.367188 218.15625 77.21875 219.015625 C 77.167969 219.050781 77.117188 219.09375 77.058594 219.128906 C 76.644531 219.417969 76.335938 219.351562 76.097656 218.910156 C 75.890625 218.507812 75.703125 218.089844 75.515625 217.675781 C 75.171875 216.894531 74.84375 216.113281 74.332031 215.410156 C 74.210938 215.246094 74.082031 215.089844 73.929688 214.953125 C 73.179688 214.25 72.273438 213.8125 71.335938 213.417969 C 71.011719 213.28125 71.046875 213.304688 71.277344 213.046875 C 71.425781 212.878906 71.507812 212.664062 71.742188 212.585938 C 71.828125 212.558594 71.914062 212.507812 71.996094 212.472656 C 72.082031 212.429688 72.160156 212.394531 72.21875 212.300781 C 72.125 212.222656 72.007812 212.25 71.910156 212.234375 C 70.367188 212.0625 68.808594 212.035156 67.273438 211.777344 C 66.476562 211.648438 65.667969 211.683594 64.878906 211.570312 C 64.375 211.496094 63.921875 211.222656 63.390625 211.222656 C 63.03125 211.222656 62.675781 211.144531 62.316406 211.132812 C 61.855469 211.109375 61.476562 211.316406 61.117188 211.589844 C 60.175781 212.300781 59.308594 213.101562 58.339844 213.769531 C 57.601562 214.277344 56.839844 214.773438 55.921875 214.902344 C 55.601562 214.953125 55.277344 214.953125 54.960938 214.867188 C 54.703125 214.792969 54.667969 214.707031 54.816406 214.464844 C 55.082031 214.027344 55.371094 213.605469 55.644531 213.175781 C 55.859375 212.824219 56.042969 212.464844 56.144531 212.0625 C 56.238281 211.683594 56.101562 211.339844 55.75 211.152344 C 55.167969 210.84375 54.59375 210.515625 53.972656 210.300781 C 53.871094 210.265625 53.71875 210.242188 53.75 210.097656 C 53.769531 209.96875 53.90625 210 54.007812 209.984375 C 54.4375 209.90625 54.867188 209.832031 55.292969 209.71875 C 55.449219 209.675781 55.507812 209.574219 55.507812 209.441406 C 55.515625 209.296875 55.390625 209.3125 55.304688 209.304688 C 53.992188 209.160156 52.707031 208.875 51.402344 208.703125 C 50.683594 208.609375 49.980469 208.429688 49.257812 208.421875 C 48.820312 208.421875 48.476562 208.507812 48.132812 208.824219 C 47.011719 209.820312 46.171875 211.046875 45.210938 212.179688 C 44.257812 213.308594 43.375 214.515625 42.234375 215.476562 C 40.96875 216.542969 39.5625 217.367188 37.964844 217.863281 C 37.296875 218.070312 36.644531 218.019531 35.992188 217.863281 C 35.648438 217.78125 35.632812 217.710938 35.820312 217.410156 C 36.703125 215.992188 37.5625 214.558594 38.214844 213.015625 C 38.695312 211.890625 39.105469 210.738281 39.304688 209.527344 C 39.355469 209.203125 39.304688 208.929688 39.148438 208.652344 C 38.703125 207.847656 38.121094 207.152344 37.476562 206.507812 C 35.957031 205.003906 34.355469 203.597656 32.726562 202.222656 C 31.484375 201.175781 30.238281 200.136719 29.003906 199.074219 C 28.515625 198.660156 28.019531 198.25 27.523438 197.847656 C 26.5 197.019531 25.667969 196.007812 24.785156 195.046875 C 24.195312 194.402344 23.65625 193.714844 23.15625 193.003906 C 23.019531 192.808594 22.875 192.796875 22.71875 192.945312 C 22.351562 193.28125 21.992188 193.632812 21.628906 193.976562 C 21.398438 194.195312 21.347656 194.1875 21.152344 193.933594 C 20.660156 193.261719 20.257812 192.53125 19.8125 191.820312 C 19.160156 190.765625 18.261719 189.9375 17.378906 189.082031 C 17.25 188.960938 17.121094 188.839844 17 188.71875 C 16.90625 188.496094 16.976562 188.394531 17.214844 188.386719 C 17.324219 188.386719 17.429688 188.34375 17.542969 188.324219 C 18.820312 188.386719 20.0625 188.644531 21.269531 189.074219 C 22.867188 189.640625 24.433594 190.300781 25.96875 191.03125 C 26.773438 191.417969 27.605469 191.742188 28.429688 192.078125 C 30.582031 192.953125 32.699219 193.886719 34.800781 194.867188 C 35.820312 195.339844 36.835938 195.8125 37.835938 196.328125 C 40.683594 197.792969 43.496094 199.320312 46.128906 201.152344 C 47.027344 201.777344 47.929688 202.402344 48.835938 203.015625 C 49.085938 203.1875 49.328125 203.273438 49.636719 203.109375 C 49.824219 203.011719 50.046875 203.003906 50.261719 202.988281 C 50.640625 202.96875 51.023438 202.9375 51.402344 202.917969 C 52.886719 202.824219 54.359375 202.652344 55.835938 202.523438 C 56.546875 202.457031 57.265625 202.402344 57.953125 202.214844 C 58.046875 202.191406 58.183594 202.1875 58.191406 202.058594 C 58.195312 201.90625 58.046875 201.941406 57.960938 201.925781 C 57.011719 201.796875 56.066406 201.664062 55.113281 201.589844 C 54.960938 201.578125 54.710938 201.621094 54.695312 201.46875 C 54.679688 201.324219 54.941406 201.289062 55.089844 201.238281 C 56.03125 200.960938 56.964844 200.652344 57.84375 200.214844 C 58.511719 199.886719 58.683594 199.597656 58.648438 198.851562 C 58.640625 198.757812 58.628906 198.667969 58.621094 198.574219 C 58.554688 198.058594 58.542969 197.539062 58.597656 197.019531 C 58.636719 196.722656 58.726562 196.667969 59.007812 196.738281 C 59.496094 196.867188 59.957031 197.066406 60.363281 197.363281 C 61.355469 198.085938 62.335938 198.808594 63.3125 199.546875 C 63.785156 199.914062 64.304688 200.15625 64.890625 200.257812 C 65.59375 200.371094 66.285156 200.257812 66.964844 200.148438 C 68.285156 199.933594 69.582031 199.632812 70.882812 199.324219 C 72.921875 198.839844 74.894531 198.179688 76.851562 197.449219 C 78.652344 196.78125 80.425781 196.027344 82.191406 195.289062 C 84.285156 194.410156 86.371094 193.503906 88.460938 192.609375 C 89.097656 192.335938 89.753906 192.085938 90.347656 191.71875 C 90.46875 191.648438 90.570312 191.554688 90.613281 191.414062 C 90.675781 191.191406 90.542969 191.019531 90.3125 191.054688 C 90.167969 191.074219 90.015625 191.109375 89.875 191.148438 C 88.566406 191.5 87.25 191.8125 85.972656 192.257812 C 85.90625 192.28125 85.8125 192.324219 85.761719 192.265625 C 85.699219 192.1875 85.796875 192.136719 85.84375 192.085938 C 85.914062 192 85.984375 191.921875 86.070312 191.84375 C 86.6875 191.304688 87.3125 190.765625 87.777344 190.09375 C 89.0625 188.238281 89.5 186.179688 89.113281 183.957031 C 88.914062 182.824219 88.617188 181.714844 88.265625 180.625 C 87.859375 179.355469 87.421875 178.09375 86.996094 176.832031 C 86.738281 176.074219 86.898438 175.863281 87.691406 175.902344 C 88.941406 175.964844 90.082031 176.382812 91.203125 176.898438 C 92.875 177.671875 94.480469 178.546875 96.085938 179.441406 C 97.832031 180.417969 99.582031 181.371094 101.3125 182.367188 C 102.359375 182.96875 103.425781 183.511719 104.519531 184.035156 C 105.25 184.386719 105.972656 184.421875 106.734375 184.164062 C 107.128906 184.035156 107.539062 183.929688 107.941406 183.828125 C 109.625 183.382812 111.285156 182.839844 112.957031 182.34375 C 114.957031 181.757812 116.953125 181.132812 118.945312 180.53125 C 120.296875 180.121094 121.644531 179.722656 123 179.320312 C 123.898438 179.054688 124.800781 178.789062 125.707031 178.554688 C 126.96875 178.222656 128.238281 177.90625 129.507812 177.601562 C 131.582031 177.089844 133.648438 176.546875 135.726562 176.09375 C 138.066406 175.585938 140.40625 175.046875 142.789062 174.804688 C 143.597656 174.71875 144.417969 174.625 145.226562 174.734375 C 145.738281 174.796875 145.953125 175.011719 146.003906 175.519531 C 146.039062 175.914062 146.039062 176.316406 145.851562 176.691406 C 145.789062 176.820312 145.746094 176.96875 145.714844 177.113281 C 145.601562 177.636719 145.414062 178.125 145.15625 178.589844 C 145 178.867188 144.804688 179.140625 144.746094 179.464844 C 144.625 180.195312 144.609375 180.933594 144.632812 181.679688 C 144.640625 181.921875 144.582031 182.117188 144.339844 182.222656 C 144.238281 182.265625 144.144531 182.332031 144.035156 182.375 C 143.886719 182.4375 143.820312 182.53125 143.894531 182.695312 C 143.945312 182.816406 143.964844 182.953125 143.914062 183.089844 C 143.769531 183.019531 143.820312 182.839844 143.683594 182.773438 C 143.640625 182.902344 143.664062 183.027344 143.664062 183.140625 C 143.664062 183.199219 143.679688 183.277344 143.585938 183.292969 C 143.441406 183.3125 143.269531 183.277344 143.226562 183.476562 C 143.226562 183.484375 143.210938 183.484375 143.203125 183.484375 C 142.882812 183.421875 142.84375 183.65625 142.800781 183.871094 C 142.78125 183.988281 142.765625 184.085938 142.617188 183.992188 C 142.574219 183.964844 142.523438 183.972656 142.5 184.023438 C 142.429688 184.164062 142.386719 184.085938 142.335938 184 C 142.292969 183.9375 142.273438 183.84375 142.164062 183.851562 C 142.085938 184.03125 142.128906 184.214844 142.105469 184.402344 C 142.09375 184.523438 142.0625 184.632812 141.914062 184.601562 C 141.519531 184.53125 141.484375 184.566406 141.496094 184.953125 C 141.496094 185.027344 141.546875 185.113281 141.476562 185.160156 C 141.390625 185.210938 141.347656 185.113281 141.289062 185.074219 C 141.074219 184.945312 140.972656 184.988281 140.929688 185.246094 C 140.914062 185.347656 140.894531 185.449219 140.878906 185.550781 C 140.871094 185.59375 140.851562 185.648438 140.792969 185.640625 C 140.484375 185.605469 140.378906 185.765625 140.371094 186.042969 C 140.371094 186.195312 140.25 186.207031 140.132812 186.222656 C 140.011719 186.246094 139.816406 186.214844 139.789062 186.351562 C 139.726562 186.6875 139.285156 186.738281 139.242188 187.082031 C 139.238281 187.132812 139.078125 187.183594 139.144531 187.289062 C 139.195312 187.375 139.308594 187.339844 139.402344 187.339844 C 139.582031 187.347656 139.695312 187.160156 139.855469 187.167969 C 140.0625 187.175781 140.253906 187.210938 140.382812 186.988281 C 140.433594 186.902344 140.519531 186.953125 140.585938 186.988281 C 140.773438 187.082031 140.988281 187.003906 141.082031 186.902344 C 141.222656 186.746094 141.261719 186.8125 141.382812 186.902344 C 141.546875 187.027344 141.699219 186.945312 141.703125 186.730469 C 141.710938 186.515625 141.804688 186.601562 141.890625 186.667969 C 142.0625 186.789062 142.277344 186.78125 142.363281 186.632812 C 142.539062 186.359375 142.652344 186.1875 143.019531 186.402344 C 143.109375 186.460938 143.355469 186.144531 143.597656 186.171875 C 143.683594 185.769531 143.835938 186.007812 143.980469 186.128906 C 144.015625 186.164062 144.050781 186.222656 144.117188 186.179688 C 144.136719 186.078125 144.015625 186 144.074219 185.894531 C 144.222656 185.855469 144.230469 186.015625 144.316406 186.074219 C 144.386719 186.023438 144.332031 185.898438 144.429688 185.871094 C 144.53125 185.914062 144.472656 186.050781 144.558594 186.09375 C 144.652344 186.074219 144.660156 185.949219 144.796875 185.957031 C 144.777344 186.25 144.746094 186.539062 144.804688 186.839844 C 144.941406 187.5 144.847656 188.15625 144.523438 188.753906 C 144.09375 189.554688 143.628906 190.335938 143.011719 191.011719 C 142.78125 191.261719 142.5 191.46875 142.292969 191.742188 C 141.382812 192.910156 140.347656 193.957031 139.078125 194.746094 C 138.820312 194.902344 138.5625 195.066406 138.398438 195.347656 C 138.347656 195.433594 138.261719 195.503906 138.175781 195.554688 C 137.644531 195.863281 137.148438 196.214844 136.667969 196.601562 C 136.257812 196.929688 135.808594 197.203125 135.328125 197.441406 C 134.847656 197.683594 134.40625 198.019531 133.964844 198.328125 C 133.484375 198.667969 133.015625 199.03125 132.5 199.332031 C 131.941406 199.65625 131.394531 200.015625 130.84375 200.34375 C 129.585938 201.089844 128.367188 201.898438 127.054688 202.558594 C 126.894531 202.636719 126.789062 202.753906 126.824219 202.960938 C 127.011719 204.148438 127.199219 205.339844 127.371094 206.53125 C 127.484375 207.289062 127.585938 208.050781 127.679688 208.816406 C 127.792969 209.734375 127.886719 210.65625 127.992188 211.574219 C 128.101562 212.515625 128.210938 213.453125 128.253906 214.398438 C 128.296875 215.460938 128.359375 216.527344 128.410156 217.589844 C 128.453125 218.527344 128.582031 219.476562 128.488281 220.421875 C 128.46875 220.679688 128.460938 220.9375 128.46875 221.195312 C 128.511719 222.449219 128.351562 223.675781 127.90625 224.851562 C 127.621094 225.609375 127.242188 226.320312 126.566406 226.820312 C 126.539062 226.828125 126.496094 226.835938 126.457031 226.84375 Z M 126.457031 226.84375 " fill-opacity="1" fill-rule="nonzero"/></g><g clip-path="url(#ac88d18b51)"><path fill="#000000" d="M 130.910156 232.242188 C 130.472656 232.15625 130.25 231.808594 130.058594 231.464844 C 129.570312 230.589844 129.230469 229.644531 128.875 228.714844 C 128.21875 227.023438 127.53125 225.34375 126.808594 223.660156 C 126.546875 224.304688 126.3125 224.9375 126.039062 225.554688 C 125.550781 226.664062 125.027344 227.761719 124.324219 228.765625 C 124.136719 229.035156 123.914062 229.265625 123.65625 229.464844 C 123.363281 229.695312 123.132812 229.644531 123.011719 229.292969 C 122.859375 228.894531 122.730469 228.492188 122.617188 228.074219 C 122.242188 226.742188 121.964844 225.386719 121.761719 224.027344 C 121.734375 223.839844 121.707031 223.660156 121.664062 223.480469 C 121.398438 222.335938 121.332031 221.144531 121.015625 220.011719 C 120.644531 218.691406 120.363281 217.34375 119.820312 216.082031 C 119.574219 215.519531 119.214844 215.015625 118.664062 214.699219 C 118.578125 214.648438 118.519531 214.605469 118.511719 214.765625 C 118.503906 214.871094 118.40625 214.894531 118.320312 214.929688 C 117.414062 215.296875 116.511719 215.675781 115.601562 216.039062 C 114.546875 216.464844 113.496094 216.910156 112.429688 217.289062 C 111.609375 217.574219 110.777344 217.824219 109.9375 218.054688 C 108.835938 218.355469 107.714844 218.5625 106.609375 218.828125 C 104.695312 219.296875 102.769531 219.683594 100.820312 219.953125 C 100.238281 220.035156 99.636719 219.996094 99.046875 220.039062 C 98.4375 220.082031 97.835938 220.148438 97.226562 220.207031 C 96.285156 220.296875 95.351562 220.382812 94.40625 220.414062 C 92.640625 220.464844 90.875 220.277344 89.117188 220.226562 C 88.703125 220.210938 88.285156 220.175781 87.875 220.140625 C 87.375 220.097656 86.949219 220.277344 86.519531 220.46875 C 85.902344 220.75 85.464844 221.253906 84.949219 221.652344 C 83.828125 222.542969 82.816406 223.554688 81.671875 224.414062 C 81.621094 224.449219 81.570312 224.492188 81.511719 224.527344 C 81.097656 224.8125 80.789062 224.75 80.550781 224.304688 C 80.34375 223.902344 80.15625 223.488281 79.96875 223.074219 C 79.625 222.292969 79.296875 221.511719 78.785156 220.808594 C 78.664062 220.644531 78.535156 220.484375 78.382812 220.347656 C 77.628906 219.644531 76.726562 219.210938 75.785156 218.816406 C 75.464844 218.679688 75.5 218.699219 75.730469 218.441406 C 75.878906 218.277344 75.960938 218.0625 76.195312 217.984375 C 76.28125 217.953125 76.367188 217.90625 76.445312 217.867188 C 76.53125 217.824219 76.613281 217.789062 76.667969 217.695312 C 76.574219 217.617188 76.460938 217.648438 76.359375 217.632812 C 74.816406 217.460938 73.261719 217.429688 71.726562 217.171875 C 70.929688 217.042969 70.117188 217.082031 69.328125 216.964844 C 68.828125 216.894531 68.375 216.621094 67.84375 216.621094 C 67.484375 216.621094 67.125 216.542969 66.769531 216.527344 C 66.308594 216.507812 65.929688 216.714844 65.570312 216.988281 C 64.628906 217.695312 63.761719 218.5 62.792969 219.167969 C 62.054688 219.675781 61.292969 220.167969 60.375 220.296875 C 60.050781 220.347656 59.730469 220.347656 59.414062 220.261719 C 59.15625 220.191406 59.121094 220.105469 59.269531 219.863281 C 59.535156 219.425781 59.824219 219 60.09375 218.570312 C 60.3125 218.21875 60.496094 217.863281 60.597656 217.460938 C 60.691406 217.082031 60.554688 216.734375 60.203125 216.550781 C 59.621094 216.242188 59.046875 215.910156 58.425781 215.695312 C 58.324219 215.660156 58.171875 215.640625 58.203125 215.496094 C 58.222656 215.367188 58.359375 215.394531 58.460938 215.382812 C 58.890625 215.300781 59.320312 215.230469 59.742188 215.117188 C 59.902344 215.074219 59.960938 214.972656 59.960938 214.835938 C 59.964844 214.695312 59.84375 214.707031 59.757812 214.699219 C 58.445312 214.558594 57.160156 214.269531 55.855469 214.097656 C 55.136719 214.003906 54.433594 213.824219 53.710938 213.820312 C 53.273438 213.820312 52.929688 213.90625 52.582031 214.21875 C 51.464844 215.214844 50.625 216.441406 49.664062 217.574219 C 48.710938 218.707031 47.828125 219.910156 46.6875 220.871094 C 45.421875 221.941406 44.015625 222.765625 42.417969 223.257812 C 41.75 223.46875 41.097656 223.417969 40.445312 223.257812 C 40.097656 223.179688 40.085938 223.109375 40.273438 222.808594 C 41.152344 221.386719 42.015625 219.953125 42.667969 218.414062 C 43.148438 217.289062 43.558594 216.132812 43.757812 214.921875 C 43.808594 214.601562 43.757812 214.328125 43.601562 214.046875 C 43.15625 213.246094 42.574219 212.550781 41.929688 211.90625 C 40.40625 210.398438 38.808594 208.996094 37.179688 207.617188 C 35.9375 206.570312 34.691406 205.53125 33.457031 204.472656 C 32.96875 204.054688 32.472656 203.648438 31.976562 203.246094 C 30.953125 202.414062 30.121094 201.402344 29.238281 200.445312 C 28.648438 199.796875 28.109375 199.109375 27.609375 198.402344 C 27.472656 198.207031 27.328125 198.191406 27.171875 198.34375 C 26.804688 198.679688 26.445312 199.03125 26.078125 199.375 C 25.851562 199.589844 25.800781 199.582031 25.605469 199.332031 C 25.109375 198.660156 24.710938 197.925781 24.265625 197.21875 C 23.613281 196.164062 22.714844 195.332031 21.832031 194.480469 C 21.703125 194.359375 21.574219 194.234375 21.453125 194.113281 C 21.359375 193.890625 21.429688 193.792969 21.667969 193.785156 C 21.773438 193.785156 21.882812 193.742188 21.996094 193.71875 C 23.273438 193.785156 24.515625 194.042969 25.722656 194.472656 C 27.320312 195.039062 28.886719 195.699219 30.421875 196.429688 C 31.222656 196.816406 32.054688 197.140625 32.882812 197.476562 C 35.035156 198.351562 37.152344 199.28125 39.253906 200.265625 C 40.273438 200.738281 41.289062 201.210938 42.289062 201.726562 C 45.136719 203.1875 47.949219 204.714844 50.582031 206.550781 C 51.480469 207.175781 52.382812 207.796875 53.285156 208.414062 C 53.539062 208.585938 53.78125 208.671875 54.089844 208.507812 C 54.277344 208.40625 54.5 208.398438 54.714844 208.386719 C 55.09375 208.363281 55.476562 208.335938 55.855469 208.3125 C 57.339844 208.222656 58.8125 208.046875 60.289062 207.917969 C 61 207.855469 61.71875 207.796875 62.40625 207.613281 C 62.5 207.589844 62.636719 207.582031 62.644531 207.453125 C 62.648438 207.304688 62.5 207.339844 62.414062 207.324219 C 61.464844 207.195312 60.519531 207.058594 59.566406 206.988281 C 59.414062 206.972656 59.164062 207.015625 59.148438 206.867188 C 59.132812 206.722656 59.390625 206.6875 59.542969 206.636719 C 60.484375 206.355469 61.414062 206.050781 62.296875 205.613281 C 62.964844 205.28125 63.136719 204.996094 63.101562 204.25 C 63.09375 204.15625 63.082031 204.0625 63.074219 203.96875 C 63.007812 203.453125 62.996094 202.9375 63.050781 202.414062 C 63.085938 202.121094 63.179688 202.0625 63.460938 202.136719 C 63.949219 202.265625 64.40625 202.464844 64.816406 202.757812 C 65.808594 203.484375 66.789062 204.207031 67.765625 204.945312 C 68.238281 205.3125 68.753906 205.554688 69.34375 205.65625 C 70.046875 205.769531 70.734375 205.65625 71.417969 205.546875 C 72.738281 205.332031 74.035156 205.03125 75.335938 204.722656 C 77.371094 204.234375 79.34375 203.574219 81.304688 202.84375 C 83.105469 202.179688 84.878906 201.425781 86.640625 200.6875 C 88.738281 199.804688 90.824219 198.902344 92.914062 198.007812 C 93.550781 197.734375 94.203125 197.484375 94.800781 197.117188 C 94.921875 197.046875 95.023438 196.953125 95.066406 196.808594 C 95.128906 196.585938 94.992188 196.414062 94.765625 196.449219 C 94.621094 196.472656 94.46875 196.507812 94.328125 196.542969 C 93.019531 196.894531 91.699219 197.210938 90.421875 197.65625 C 90.359375 197.675781 90.265625 197.71875 90.214844 197.664062 C 90.152344 197.582031 90.25 197.535156 90.292969 197.484375 C 90.367188 197.398438 90.4375 197.320312 90.523438 197.238281 C 91.140625 196.703125 91.765625 196.164062 92.230469 195.492188 C 93.515625 193.632812 93.953125 191.578125 93.566406 189.355469 C 93.363281 188.222656 93.070312 187.109375 92.71875 186.023438 C 92.308594 184.753906 91.871094 183.492188 91.449219 182.230469 C 91.191406 181.46875 91.347656 181.261719 92.144531 181.296875 C 93.394531 181.363281 94.535156 181.777344 95.652344 182.292969 C 97.324219 183.070312 98.933594 183.941406 100.539062 184.839844 C 102.285156 185.8125 104.035156 186.765625 105.761719 187.761719 C 106.8125 188.367188 107.878906 188.910156 108.96875 189.433594 C 109.703125 189.785156 110.425781 189.820312 111.1875 189.5625 C 111.582031 189.433594 111.992188 189.328125 112.394531 189.226562 C 114.078125 188.78125 115.734375 188.238281 117.40625 187.742188 C 119.410156 187.15625 121.40625 186.53125 123.398438 185.929688 C 124.746094 185.519531 126.097656 185.117188 127.453125 184.71875 C 128.347656 184.453125 129.253906 184.1875 130.15625 183.949219 C 131.421875 183.621094 132.691406 183.304688 133.960938 182.996094 C 136.035156 182.488281 138.101562 181.941406 140.179688 181.492188 C 142.519531 180.984375 144.859375 180.445312 147.242188 180.203125 C 148.050781 180.117188 148.871094 180.023438 149.679688 180.128906 C 150.191406 180.195312 150.40625 180.410156 150.457031 180.917969 C 150.492188 181.3125 150.492188 181.714844 150.304688 182.085938 C 150.238281 182.214844 150.195312 182.367188 150.167969 182.507812 C 150.054688 183.03125 149.867188 183.519531 149.609375 183.984375 C 149.449219 184.265625 149.257812 184.539062 149.199219 184.859375 C 149.078125 185.589844 149.0625 186.328125 149.085938 187.074219 C 149.09375 187.320312 149.035156 187.511719 148.789062 187.621094 C 148.691406 187.664062 148.597656 187.726562 148.488281 187.769531 C 148.339844 187.835938 148.273438 187.929688 148.347656 188.09375 C 148.394531 188.214844 148.417969 188.351562 148.367188 188.488281 C 148.222656 188.414062 148.273438 188.238281 148.136719 188.171875 C 148.09375 188.300781 148.117188 188.421875 148.117188 188.539062 C 148.117188 188.59375 148.128906 188.675781 148.039062 188.6875 C 147.894531 188.710938 147.722656 188.675781 147.679688 188.875 C 147.679688 188.882812 147.664062 188.882812 147.65625 188.882812 C 147.335938 188.816406 147.296875 189.054688 147.253906 189.269531 C 147.234375 189.382812 147.21875 189.484375 147.070312 189.390625 C 147.027344 189.363281 146.976562 189.371094 146.953125 189.417969 C 146.882812 189.5625 146.839844 189.484375 146.789062 189.398438 C 146.746094 189.332031 146.722656 189.238281 146.617188 189.246094 C 146.539062 189.425781 146.582031 189.613281 146.558594 189.800781 C 146.542969 189.921875 146.515625 190.027344 146.367188 190 C 145.972656 189.929688 145.933594 189.964844 145.949219 190.351562 C 145.949219 190.421875 146 190.507812 145.929688 190.558594 C 145.839844 190.609375 145.796875 190.507812 145.742188 190.472656 C 145.527344 190.34375 145.425781 190.386719 145.382812 190.644531 C 145.367188 190.746094 145.347656 190.847656 145.332031 190.945312 C 145.324219 190.988281 145.304688 191.046875 145.246094 191.039062 C 144.9375 191.003906 144.832031 191.160156 144.824219 191.441406 C 144.824219 191.589844 144.699219 191.605469 144.585938 191.621094 C 144.464844 191.640625 144.269531 191.613281 144.242188 191.75 C 144.175781 192.085938 143.738281 192.136719 143.695312 192.480469 C 143.6875 192.53125 143.53125 192.582031 143.597656 192.6875 C 143.644531 192.773438 143.761719 192.738281 143.855469 192.738281 C 144.035156 192.746094 144.148438 192.558594 144.304688 192.566406 C 144.515625 192.574219 144.707031 192.609375 144.835938 192.386719 C 144.886719 192.300781 144.972656 192.351562 145.039062 192.386719 C 145.226562 192.480469 145.441406 192.402344 145.535156 192.300781 C 145.675781 192.144531 145.710938 192.207031 145.835938 192.300781 C 146 192.421875 146.148438 192.34375 146.15625 192.128906 C 146.164062 191.914062 146.257812 192 146.34375 192.0625 C 146.515625 192.1875 146.730469 192.179688 146.816406 192.027344 C 146.988281 191.757812 147.105469 191.585938 147.46875 191.800781 C 147.5625 191.855469 147.808594 191.542969 148.050781 191.570312 C 148.136719 191.167969 148.289062 191.40625 148.433594 191.527344 C 148.46875 191.5625 148.503906 191.621094 148.566406 191.578125 C 148.589844 191.476562 148.46875 191.398438 148.523438 191.289062 C 148.675781 191.253906 148.683594 191.410156 148.769531 191.46875 C 148.839844 191.417969 148.785156 191.296875 148.882812 191.269531 C 148.984375 191.3125 148.925781 191.449219 149.011719 191.492188 C 149.105469 191.46875 149.113281 191.347656 149.25 191.355469 C 149.226562 191.648438 149.199219 191.933594 149.257812 192.234375 C 149.394531 192.894531 149.300781 193.554688 148.976562 194.148438 C 148.546875 194.953125 148.082031 195.734375 147.464844 196.40625 C 147.234375 196.660156 146.953125 196.867188 146.746094 197.140625 C 145.835938 198.308594 144.800781 199.355469 143.53125 200.140625 C 143.273438 200.300781 143.015625 200.464844 142.851562 200.746094 C 142.800781 200.832031 142.714844 200.902344 142.628906 200.953125 C 142.097656 201.261719 141.601562 201.613281 141.121094 202 C 140.710938 202.328125 140.261719 202.601562 139.777344 202.835938 C 139.296875 203.082031 138.859375 203.417969 138.414062 203.726562 C 137.933594 204.0625 137.46875 204.429688 136.953125 204.730469 C 136.390625 205.050781 135.847656 205.410156 135.292969 205.742188 C 134.039062 206.484375 132.820312 207.296875 131.507812 207.957031 C 131.347656 208.035156 131.242188 208.148438 131.277344 208.355469 C 131.464844 209.546875 131.648438 210.738281 131.820312 211.925781 C 131.9375 212.6875 132.039062 213.445312 132.128906 214.214844 C 132.246094 215.128906 132.339844 216.054688 132.445312 216.972656 C 132.554688 217.910156 132.660156 218.851562 132.703125 219.796875 C 132.746094 220.859375 132.8125 221.925781 132.863281 222.988281 C 132.90625 223.925781 133.035156 224.871094 132.941406 225.816406 C 132.921875 226.074219 132.914062 226.335938 132.921875 226.59375 C 132.964844 227.847656 132.804688 229.070312 132.359375 230.246094 C 132.074219 231.007812 131.691406 231.71875 131.019531 232.21875 C 130.988281 232.226562 130.945312 232.234375 130.910156 232.242188 Z M 130.910156 232.242188 " fill-opacity="1" fill-rule="nonzero"/></g></svg>